<svg width="328" height="160" viewBox="0 0 328 160" fill="none" xmlns="http://www.w3.org/2000/svg">
<path d="M293.624 35.5971C294.414 35.4611 295.237 35.4145 295.982 35.1505C296.324 35.0291 296.757 34.4678 296.738 34.1291C296.504 29.8811 295.906 25.6971 293.825 21.8945C293.15 20.6625 292.364 19.3251 290.68 19.4345C288.94 19.5478 288.184 20.9705 287.452 22.3025C287.237 22.6905 287.134 23.1531 287.052 23.5958C286.418 26.9771 287.15 30.1065 288.93 32.9958C289.985 34.7078 291.55 35.6051 293.624 35.5971ZM134.432 67.9785C139.796 64.3225 143.093 59.6865 145.124 54.1185C145.616 52.7731 145.914 51.2985 145.976 49.8691C146.058 47.9411 144.909 47.1558 143.03 47.5811C141.034 48.0318 139.632 49.3158 138.577 50.9638C135.341 56.0225 134.765 61.7358 134.432 67.9785ZM241.504 48.4518C242.132 48.0571 242.434 47.8918 242.712 47.6905C247.256 44.3825 250.27 39.9398 252.189 34.7265C252.65 33.4718 252.97 32.1105 253.049 30.7798C253.185 28.4691 251.868 27.5345 249.672 28.2558C247.762 28.8811 246.406 30.2291 245.398 31.9118C242.404 36.9065 241.813 42.4665 241.504 48.4518ZM281.28 40.6931C281.174 44.2291 281.537 47.4545 282.556 50.5651C284.008 54.9905 286.998 55.9278 290.853 53.2651C291.224 53.0091 291.57 52.7078 291.894 52.3931C294.74 49.6185 295.754 46.0518 296.406 42.1011C291.104 44.0331 286.053 44.7211 281.28 40.6931V40.6931ZM230.252 62.6118C227.58 63.6251 225.04 64.9238 222.344 65.5491C215.394 67.1611 209.008 62.3251 208.176 55.2398C207.646 50.7291 208.364 46.4011 209.554 42.0971C209.633 41.8118 209.702 41.5251 209.557 41.0305C208.854 41.6678 208.086 42.2478 207.46 42.9545C204.181 46.6558 202.264 50.9798 201.889 55.9171C201.457 61.6105 201.186 67.3211 202.146 72.9851C202.521 75.2025 203.114 77.4158 203.904 79.5185C204.706 81.6505 206.306 83.0038 208.772 82.8211C209.753 85.4945 205.85 88.9051 202.464 90.0558C199.497 91.0638 196.516 91.2785 193.673 89.6891C190.888 88.1318 189.666 85.4198 188.796 82.3865C187.534 84.4291 186.524 86.4118 185.184 88.1385C183.804 89.9158 182.291 91.6931 180.507 93.0345C175.296 96.9518 168.793 95.3918 165.725 89.6598C163.784 86.0331 163.186 82.0438 162.717 78.0278C162.676 77.6798 162.654 77.3305 162.353 76.8598C162.061 77.4478 161.769 78.0358 161.478 78.6238C157.834 85.9945 153.314 92.6851 146.536 97.5731C143.474 99.7811 140.093 101.278 136.353 101.994C132.96 102.642 130.306 101.496 128.169 98.9371C125.617 95.8825 124.622 92.1491 123.997 88.3651C123.446 85.0385 122.969 81.6305 123.074 78.2771C123.436 66.8745 125.312 55.7958 131.467 45.8771C133.741 42.2131 136.618 39.1451 140.757 37.5145C145.949 35.4678 150.387 37.0985 153.044 41.9998C154.727 45.1011 155.313 48.4865 155.313 51.9251C155.314 58.1625 153.722 63.9931 150.161 69.1971C146.958 73.8785 142.623 76.9931 137.156 78.5278C136.88 78.6038 136.609 78.7025 135.879 78.9371C136.895 80.5531 137.685 82.1065 138.761 83.4278C139.614 84.4771 140.915 84.5425 142.248 84.1478C145.913 83.0611 148.717 80.6691 151.377 78.1118C155.437 74.2105 158.894 69.8025 161.781 64.9651C162.148 64.3518 162.349 63.5745 162.408 62.8545C163.204 53.0891 164.86 43.4611 167.083 33.9291C167.801 30.8465 168.712 27.8078 169.594 24.5318C166.484 23.4945 163.245 22.6931 159.895 23.9105C156.696 25.0731 153.724 26.6518 151.472 29.3318C150.844 30.0798 150.152 30.7438 149.008 30.1811C147.897 29.6358 147.521 28.6011 147.897 27.6611C148.647 25.7798 149.403 23.7745 150.672 22.2505C154.727 17.3798 160.303 15.7065 166.419 15.4985C168.637 15.4238 170.86 15.4865 173.182 15.4865C174.644 12.4785 176.094 9.45579 177.576 6.44912C178.986 3.58779 181.413 1.82379 184.201 0.499788C184.776 0.226455 185.452 0.0797875 186.092 0.0384542C188.782 -0.140212 189.174 0.558451 188.124 3.02645C186.402 7.07578 184.812 11.1811 183.165 15.2625C183.282 15.3945 183.4 15.5264 183.516 15.6584C184.945 15.2464 186.417 14.9451 187.794 14.4011C191.4 12.9744 194.449 10.8251 196.373 7.33312C196.568 6.97979 196.79 6.63846 197.03 6.31446C197.888 5.16112 198.861 4.26913 200.474 4.77179C201.841 5.19713 202.838 6.53045 203.049 8.00778C203.876 13.7931 199.084 24.0691 191.804 26.9025C188.463 28.2038 184.957 28.5705 181.385 28.2931C180.79 28.2465 180.196 28.2131 179.372 28.1598C178.461 33.4438 177.347 38.6171 176.731 43.8478C176.06 49.5518 175.665 55.3051 175.52 61.0465C175.45 63.7691 175.968 66.5878 176.702 69.2291C177.69 72.7825 180.253 73.3971 182.953 70.8425C184.441 69.4331 185.625 67.6998 186.893 66.0705C187.145 65.7465 187.254 65.2318 187.256 64.8038C187.276 53.3305 189.854 42.4411 194.55 31.9958C196.84 26.9038 201.742 23.5078 207.012 23.6865C207.509 23.7038 208.013 23.7998 208.494 23.9318C209.561 24.2251 209.91 24.6665 209.341 25.8851C207.84 29.0958 206.54 32.4011 205.16 35.6691C205.322 35.7585 205.485 35.8465 205.649 35.9371C206.756 34.8745 207.832 33.7785 208.977 32.7598C211.836 30.2145 214.93 28.1611 218.828 27.4558C222.128 26.8571 225.149 28.6251 225.762 31.9078C226.51 35.8985 225.68 39.6438 223.614 43.0851C221.86 46.0065 221.468 49.0291 222.612 52.2131C223.584 54.9238 225.114 55.5518 227.8 54.5731C229.578 53.9265 230.505 53.0305 230.753 50.8465C231.837 41.3411 234.176 32.1878 240.03 24.3331C242.53 20.9811 245.63 18.3771 249.884 17.5118C253.524 16.7691 256.576 17.7425 258.89 20.7185C261.597 24.1998 262.353 28.3251 262.374 32.5478C262.404 38.6785 260.826 44.4185 257.376 49.5638C253.998 54.5998 249.361 57.8585 243.486 59.2971C243.568 63.5705 246.993 65.8851 250.772 64.2291C254.454 62.6145 257.37 59.9451 260.068 57.0625C261.928 55.0745 263.508 52.8278 265.35 50.8251C266.832 49.2171 267.185 47.3678 267.266 45.2985C267.614 36.5038 269.56 28.1411 274.172 20.5225C275.008 19.1411 275.986 18.1691 277.754 18.1558C278.173 18.1518 278.686 17.5158 278.985 17.0585C282.389 11.8491 288.652 9.10779 294.737 10.3545C299.673 11.3651 302.37 14.9091 303.936 19.3251C304.869 21.9585 305.249 24.7878 305.86 27.5345C306.009 28.2011 306.084 28.8851 306.228 29.7838C308.726 26.7025 310.641 23.5518 311.942 20.0331C312.221 19.2825 312.404 18.4225 312.902 17.8465C313.36 17.3171 314.273 16.7211 314.818 16.8518C315.377 16.9865 316.181 18.0318 316.104 18.5651C315.713 21.2265 315.536 24.0745 314.402 26.4345C312.694 29.9985 310.638 33.5585 308.004 36.4611C306 38.6705 305.572 40.9265 305.198 43.5625C303.96 52.3065 301.537 60.6425 296.95 68.3278C290.493 79.1478 277.088 76.3358 272.32 68.1931C270.932 65.8238 270.013 63.1798 268.885 60.6585C268.745 60.3451 268.641 60.0158 268.577 59.8438C266.332 63.2678 264.258 66.8571 261.772 70.1318C257.38 75.9145 252.005 80.4651 244.732 82.2958C240.02 83.4811 236.718 82.1865 234.174 78.0358C232.048 74.5665 231.181 70.6891 230.66 66.7185C230.47 65.2771 230.37 63.8238 230.252 62.6118" fill="#020304"/>
<path d="M95.7299 116.527C89.9006 120.051 85.2726 124.192 82.8899 130.366C82.5859 131.155 82.4899 132.672 82.9046 132.954C83.6953 133.487 85.1539 133.82 85.9246 133.428C87.4859 132.635 89.0259 131.506 90.1286 130.151C93.2526 126.312 94.4846 121.615 95.7299 116.527ZM112.663 104.548C116.203 104.695 119.623 104.958 123.042 104.959C143.409 104.97 163.777 104.95 184.143 104.874C190.506 104.85 196.879 104.803 203.229 104.435C210.939 103.988 218.637 103.262 226.327 102.528C234.873 101.714 243.403 100.744 251.753 98.6122C264.419 95.3802 276.693 91.1588 288.038 84.5069C294.766 80.5615 300.529 75.5482 304.761 69.0122C307.259 65.1522 309.23 60.9429 311.322 56.8322C312.263 54.9802 313.501 54.1549 315.435 54.9242C318.638 56.1962 321.181 58.4749 323.267 61.1269C326.061 64.6775 327.295 68.8788 327.031 73.3762C326.922 75.2308 326.398 77.1495 325.658 78.8628C322.71 85.6975 317.549 90.6788 311.63 94.9442C298.885 104.131 284.691 110.07 269.479 113.776C261.814 115.643 254.051 116.884 246.225 117.688C239.563 118.371 232.881 118.971 226.193 119.206C217.463 119.512 208.718 119.566 199.982 119.462C193.074 119.379 186.155 119.079 179.267 118.538C172.055 117.971 164.863 117.086 157.682 116.182C150.611 115.291 143.577 114.118 136.507 113.222C128.85 112.25 121.159 111.731 113.427 111.942C112.063 111.979 111.555 112.375 111.362 113.814C110.289 121.774 108.194 129.495 105.779 137.146C103.769 143.514 99.8633 148.558 95.1793 153.123C90.2219 157.955 84.2073 160.008 77.4046 159.555C69.9619 159.059 65.0393 153.636 64.8953 146.167C64.7913 140.795 66.5606 135.975 69.7499 131.811C74.9899 124.968 80.8339 118.652 88.2086 114.024C90.8366 112.376 93.7699 111.224 96.5259 109.772C96.9606 109.543 97.3939 108.96 97.4846 108.476C99.2246 99.2642 100.987 90.0548 102.591 80.8188C104.186 71.6308 105.771 62.4375 107.051 53.2029C107.83 47.5735 110.961 43.9388 115.703 41.4668C116.965 40.8095 118.606 40.7015 120.078 40.6762C121.649 40.6482 122.281 41.7028 121.595 43.1042C117.598 51.2695 116.929 60.1535 116.006 68.9629C114.834 80.1562 113.841 91.3682 112.775 102.572C112.715 103.212 112.702 103.855 112.663 104.548Z" fill="#020304"/>
<path d="M68.7593 75.4584C70.9686 74.6424 72.7793 74.0651 74.5006 73.2878C75.0739 73.0291 75.6579 72.3291 75.8299 71.7171C77.6979 65.0798 79.4859 58.4211 81.2886 51.7651C81.3659 51.4785 81.3579 51.1691 81.3913 50.8705C81.3273 50.8558 81.2646 50.8425 81.2019 50.8278C77.1219 58.9038 73.0419 66.9798 68.7593 75.4584ZM80.3473 30.0731C76.9606 30.9291 73.8739 31.5718 70.8739 32.4958C64.1206 34.5758 57.8313 37.5851 52.5086 42.3558C48.4886 45.9585 45.5299 50.1518 45.0513 55.7491C45.0139 56.1864 44.5353 56.8438 44.1553 56.9291C43.6833 57.0345 42.9539 56.8051 42.5899 56.4558C38.5886 52.6145 37.5379 47.8331 38.5179 42.5598C39.6846 36.2945 43.2193 31.3131 47.7419 27.0718C58.0153 17.4358 70.1619 12.1438 84.3593 12.0758C89.7513 12.0505 94.8833 13.1971 99.2406 16.6718C99.9473 17.2358 100.663 17.8145 101.25 18.4945C101.506 18.7905 101.619 19.4105 101.503 19.7945C100.301 23.7718 98.7193 27.6611 97.8606 31.7078C96.2086 39.4825 94.9046 47.3331 93.5593 55.1705C92.8273 59.4305 92.3073 63.7278 91.6859 68.0478C92.0539 68.1651 92.2313 68.2558 92.4166 68.2758C97.2806 68.8118 99.7793 72.7278 98.6433 77.8985C97.9539 81.0305 96.3059 83.6811 93.9273 85.8305C93.5526 86.1705 92.8766 86.1758 92.3393 86.3358C92.1953 85.7958 91.8713 85.2331 91.9393 84.7198C92.1606 83.0238 91.8353 81.8438 90.4219 80.8051C90.3353 85.1838 90.1753 89.3465 90.1926 93.5078C90.2099 97.8998 90.4753 102.29 90.4553 106.68C90.4526 107.674 89.9713 108.924 89.2713 109.604C87.8753 110.958 86.2939 112.226 84.5793 113.132C79.3499 115.893 75.3419 119.925 71.9299 124.646C70.9513 126.001 69.6073 125.98 68.9299 124.408C68.4686 123.34 68.2153 122.054 68.2993 120.897C68.6913 115.565 69.0699 110.221 69.7633 104.922C70.5406 98.9718 71.6513 93.0651 72.6126 87.1385C72.6739 86.7571 72.6899 86.3678 72.7779 85.4505C68.6193 87.8385 64.7753 89.9984 60.9953 92.2651C60.3646 92.6438 59.9019 93.4358 59.5539 94.1331C54.7793 103.722 49.5393 113.048 43.1206 121.633C38.5179 127.792 33.4406 133.573 26.8993 137.826C23.6299 139.952 20.2446 141.697 16.2219 142.097C9.0046 142.817 3.12327 139.013 1.30727 131.944C-0.420733 125.22 1.10993 118.969 4.57393 113.102C4.82327 112.681 5.1846 112.328 5.70593 111.678C5.92193 112.413 6.09527 112.888 6.19793 113.376C7.8446 121.272 16.3459 122.229 20.6659 118.64C25.9606 114.237 31.0033 109.586 35.4673 104.33C35.6593 104.106 35.8366 103.869 36.1019 103.534C32.8913 102.681 30.2713 101.121 28.3486 98.4731C25.0926 93.9865 24.9833 87.7944 28.1686 83.3198C28.6313 82.6691 29.2086 82.0798 29.8179 81.5611C30.1219 81.3025 30.6179 81.2691 31.0259 81.1344C31.1566 81.5411 31.4019 81.9478 31.4019 82.3544C31.4033 86.3411 33.4673 88.6011 37.4673 88.5558C42.3753 88.4985 46.7726 86.5945 51.0113 84.3025C51.3433 84.1238 51.5899 83.7518 51.8233 83.4304C58.1459 74.7278 64.3019 65.9051 69.5206 56.4878C74.0699 48.2771 77.6633 39.6425 80.3473 30.0731" fill="#020304"/>
</svg>
